<svg width="14" height="9" viewBox="0 0 14 9" fill="none" xmlns="http://www.w3.org/2000/svg">
<path d="M5.64263 4.11083C5.92621 3.96819 6.14061 3.80931 6.28752 3.63762C6.5489 3.32842 6.67788 2.91842 6.67788 2.41019C6.67788 1.91562 6.5489 1.49281 6.29094 1.13833C5.86044 0.560917 5.13184 0.265375 4.10171 0.25H0.0205078V8.58068H3.82582C4.25461 8.58068 4.6518 8.54395 5.01909 8.46879C5.38638 8.39277 5.70413 8.25354 5.97319 8.05025C6.21236 7.87343 6.41223 7.65391 6.57111 7.3951C6.82223 7.00389 6.94779 6.56058 6.94779 6.06687C6.94779 5.58854 6.83761 5.1811 6.61894 4.84627C6.39771 4.51143 6.07313 4.26629 5.64263 4.11083ZM1.70407 1.69696H3.54223C3.94626 1.69696 4.27938 1.74052 4.54075 1.82679C4.84313 1.95235 4.99432 2.20775 4.99432 2.59725C4.99432 2.9466 4.879 3.19089 4.65094 3.32842C4.42117 3.46594 4.12307 3.53512 3.75748 3.53512H1.70407V1.69696ZM4.6108 6.98852C4.40751 7.08675 4.12136 7.13543 3.75492 7.13543H1.70407V4.91375H3.78311C4.14528 4.91631 4.42715 4.96414 4.62873 5.05383C4.98748 5.21612 5.166 5.51337 5.166 5.94814C5.166 6.46064 4.9815 6.80573 4.6108 6.98852Z" fill="#3B3B3B"/>
<path d="M12.373 0.638641H8.75391V1.6756H12.373V0.638641Z" fill="#3B3B3B"/>
<path d="M13.6301 4.73097C13.5549 4.24836 13.3892 3.82384 13.1313 3.4574C12.8485 3.04228 12.4898 2.73819 12.0533 2.54601C11.6185 2.35297 11.1291 2.25645 10.5841 2.2573C9.66933 2.2573 8.92621 2.54344 8.35136 3.11147C7.77821 3.68119 7.49121 4.50034 7.49121 5.56805C7.49121 6.70665 7.80811 7.52921 8.44531 8.03403C9.07996 8.53969 9.81283 8.79167 10.6448 8.79167C11.6519 8.79167 12.4351 8.49186 12.9946 7.89394C13.3525 7.5164 13.5549 7.14484 13.5994 6.78011H11.932C11.8355 6.96034 11.7236 7.10128 11.5955 7.20378C11.3631 7.39169 11.0608 7.48565 10.6901 7.48565C10.3373 7.48565 10.0383 7.40792 9.78892 7.25332C9.37721 7.00561 9.16196 6.57169 9.13463 5.95413H13.6848C13.6916 5.42198 13.6745 5.01284 13.6301 4.73097ZM9.17563 4.89069C9.23542 4.49009 9.38063 4.17234 9.61125 3.93744C9.84188 3.7034 10.1682 3.58553 10.5859 3.58467C10.9711 3.58467 11.2931 3.69486 11.5553 3.91609C11.8141 4.13903 11.9602 4.46276 11.9901 4.89069H9.17563Z" fill="#3B3B3B"/>
</svg>
