<svg width="15" height="14" viewBox="0 0 15 14" fill="none" xmlns="http://www.w3.org/2000/svg">
<path d="M10.6547 0.6875H4.38694C2.34704 0.6875 0.6875 2.25813 0.6875 4.18876V10.1209C0.6875 12.0514 2.34704 13.622 4.38694 13.622H10.6548C12.6946 13.622 14.3542 12.0514 14.3542 10.1209V4.18876C14.3542 2.25813 12.6946 0.6875 10.6547 0.6875V0.6875ZM13.553 10.1209C13.553 11.6333 12.2528 12.8637 10.6547 12.8637H4.38694C2.78882 12.8637 1.4887 11.6333 1.4887 10.1209V4.18876C1.4887 2.67625 2.78882 1.44578 4.38694 1.44578H10.6548C12.2528 1.44578 13.553 2.67625 13.553 4.18876V10.1209Z" fill="#3B3B3B"/>
<path d="M7.52105 3.61807C5.4605 3.61807 3.78418 5.20459 3.78418 7.15476C3.78418 9.10492 5.4605 10.6914 7.52105 10.6914C9.58161 10.6914 11.2579 9.10492 11.2579 7.15476C11.2579 5.20459 9.58161 3.61807 7.52105 3.61807ZM7.52105 9.93317C5.90239 9.93317 4.58538 8.6868 4.58538 7.15476C4.58538 5.62281 5.90239 4.37635 7.52105 4.37635C9.13982 4.37635 10.4567 5.62281 10.4567 7.15476C10.4567 8.6868 9.13982 9.93317 7.52105 9.93317Z" fill="#3B3B3B"/>
<path d="M11.3474 2.36203C10.7384 2.36203 10.2432 2.83087 10.2432 3.40708C10.2432 3.98338 10.7384 4.45223 11.3474 4.45223C11.9563 4.45223 12.4517 3.98338 12.4517 3.40708C12.4517 2.83077 11.9563 2.36203 11.3474 2.36203ZM11.3474 3.69385C11.1803 3.69385 11.0444 3.56517 11.0444 3.40708C11.0444 3.24889 11.1803 3.12031 11.3474 3.12031C11.5145 3.12031 11.6505 3.24889 11.6505 3.40708C11.6505 3.56517 11.5145 3.69385 11.3474 3.69385Z" fill="#3B3B3B"/>
</svg>
