<svg width="15" height="10" viewBox="0 0 15 10" fill="none" xmlns="http://www.w3.org/2000/svg">
<path d="M13.3203 0.25H1.05536C0.669866 0.25 0.354492 0.562214 0.354492 0.94382V8.57598C0.354492 8.95756 0.669866 9.26982 1.05536 9.26982H13.3203C13.7057 9.26982 14.0212 8.95761 14.0212 8.57598V0.94382C14.0211 0.562214 13.7058 0.25 13.3203 0.25ZM13.0573 0.770339L7.59098 4.8293C7.4927 4.90335 7.34183 4.94967 7.18779 4.94898C7.03377 4.94967 6.88293 4.90335 6.78462 4.8293L1.31834 0.770339H13.0573ZM10.1374 5.09712L13.116 8.73976C13.119 8.74341 13.1226 8.74618 13.1258 8.74949H1.24982C1.25297 8.74602 1.25665 8.74341 1.25964 8.73976L4.23827 5.09712C4.32954 4.98542 4.31224 4.82167 4.1992 4.73111C4.08637 4.64076 3.92095 4.65788 3.82966 4.76961L0.880124 8.37668V1.09558L6.46941 5.24555C6.6795 5.40046 6.93511 5.46864 7.18776 5.46932C7.44006 5.46879 7.69588 5.40062 7.90611 5.24555L13.4954 1.09558V8.37663L10.5459 4.76961C10.4546 4.65791 10.2891 4.64073 10.1764 4.73111C10.0634 4.82146 10.046 4.98542 10.1374 5.09712Z" fill="#3B3B3B"/>
</svg>
